<?xml version="1.0"?>
<svg xmlns="http://www.w3.org/2000/svg" height="512px" viewBox="0 0 512 512" width="512px"><g><path d="m482 0h-452c-16.542969 0-30 13.457031-30 30v336c0 16.542969 13.457031 30 30 30h251.230469c8.328125 23.851562 26.015625 43.351562 48.640625 54.078125v51.921875c0 3.628906 1.96875 6.972656 5.136718 8.738281 3.171876 1.765625 7.046876 1.671875 10.132813-.238281l24.859375-15.402344 24.859375 15.402344c1.613281.996094 3.4375 1.5 5.269531 1.5 1.671875 0 3.347656-.421875 4.863282-1.261719 3.167968-1.765625 5.136718-5.109375 5.136718-8.738281v-51.921875c22.625-10.726563 40.3125-30.226563 48.640625-54.078125h23.230469c16.542969 0 30-13.457031 30-30v-336c0-16.542969-13.457031-30-30-30zm-91.871094 484.039062-14.863281-9.207031c-3.226563-1.996093-7.304687-1.996093-10.53125 0l-14.863281 9.207031v-27.128906c6.488281 1.417969 13.222656 2.175782 20.128906 2.175782s13.640625-.757813 20.128906-2.175782zm-20.128906-44.953124c-40.804688 0-74-33.195313-74-74 0-40.804688 33.195312-74 74-74s74 33.195312 74 74c0 40.804687-33.195312 74-74 74zm122-73.085938c0 5.515625-4.484375 10-10 10h-18.636719c.414063-3.582031.636719-7.222656.636719-10.914062 0-21.671876-7.375-41.648438-19.742188-57.566407 3.125-.996093 6.398438-1.519531 9.742188-1.519531 5.523438 0 10-4.476562 10-10v-196c0-5.523438-4.476562-10-10-10-17.644531 0-32-14.355469-32-32 0-5.523438-4.476562-10-10-10h-114.9375c-5.523438 0-10 4.476562-10 10s4.476562 10 10 10h105.902344c4.042968 20.667969 20.367187 36.992188 41.035156 41.035156v177.925782c-5.128906 1-10.070312 2.769531-14.683594 5.261718-16.1875-13.207031-36.84375-21.136718-59.316406-21.136718-38.667969 0-71.953125 23.472656-86.367188 56.914062h-174.597656c-4.042968-20.667969-20.367187-36.992188-41.035156-41.035156v-177.929688c20.667969-4.042968 36.992188-20.367187 41.035156-41.035156h108.027344c5.523438 0 10-4.476562 10-10s-4.476562-10-10-10h-117.0625c-5.523438 0-10 4.476562-10 10 0 17.644531-14.355469 32-32 32-5.523438 0-10 4.476562-10 10v196c0 5.523438 4.476562 10 10 10 17.644531 0 32 14.355469 32 32 0 5.523438 4.476562 10 10 10h177.5625c-1.023438 5.542969-1.5625 11.253906-1.5625 17.085938 0 3.691406.222656 7.332031.636719 10.914062h-246.636719c-5.515625 0-10-4.484375-10-10v-336c0-5.515625 4.484375-10 10-10h452c5.515625 0 10 4.484375 10 10zm0 0" data-original="#000000" class="active-path" data-old_color="#000000" fill="#FBD601"/><path d="m370 315.085938c-27.570312 0-50 22.429687-50 50 0 27.570312 22.429688 50 50 50s50-22.429688 50-50c0-27.570313-22.429688-50-50-50zm0 80c-16.542969 0-30-13.457032-30-30 0-16.542969 13.457031-30 30-30s30 13.457031 30 30c0 16.542968-13.457031 30-30 30zm0 0" data-original="#000000" class="active-path" data-old_color="#000000" fill="#FBD601"/><path d="m207.0625 153.5c0 27.570312 22.429688 50 50 50s50-22.429688 50-50-22.429688-50-50-50-50 22.429688-50 50zm80 0c0 16.542969-13.457031 30-30 30s-30-13.457031-30-30 13.457031-30 30-30 30 13.457031 30 30zm0 0" data-original="#000000" class="active-path" data-old_color="#000000" fill="#FBD601"/><path d="m159.691406 238.5c0 5.523438 4.476563 10 10 10h172.617188c5.523437 0 10-4.476562 10-10s-4.476563-10-10-10h-172.617188c-5.523437 0-10 4.476562-10 10zm0 0" data-original="#000000" class="active-path" data-old_color="#000000" fill="#FBD601"/><path d="m286 272.5h-60c-5.523438 0-10 4.476562-10 10s4.476562 10 10 10h60c5.523438 0 10-4.476562 10-10s-4.476562-10-10-10zm0 0" data-original="#000000" class="active-path" data-old_color="#000000" fill="#FBD601"/><path d="m50.929688 345.070312c1.859374 1.859376 4.441406 2.929688 7.070312 2.929688s5.210938-1.070312 7.070312-2.929688c1.859376-1.859374 2.929688-4.441406 2.929688-7.070312s-1.070312-5.210938-2.929688-7.070312c-1.859374-1.859376-4.441406-2.929688-7.070312-2.929688s-5.210938 1.070312-7.070312 2.929688c-1.859376 1.859374-2.929688 4.441406-2.929688 7.070312s1.070312 5.210938 2.929688 7.070312zm0 0" data-original="#000000" class="active-path" data-old_color="#000000" fill="#FBD601"/><path d="m58 48c-2.628906 0-5.210938 1.070312-7.070312 2.929688-1.859376 1.859374-2.929688 4.441406-2.929688 7.070312s1.070312 5.210938 2.929688 7.070312c1.859374 1.859376 4.441406 2.929688 7.070312 2.929688s5.210938-1.070312 7.070312-2.929688c1.859376-1.859374 2.929688-4.441406 2.929688-7.070312s-1.070312-5.210938-2.929688-7.070312c-1.859374-1.859376-4.441406-2.929688-7.070312-2.929688zm0 0" data-original="#000000" class="active-path" data-old_color="#000000" fill="#FBD601"/><path d="m454 48c-2.628906 0-5.210938 1.070312-7.070312 2.929688-1.859376 1.859374-2.929688 4.441406-2.929688 7.070312s1.070312 5.210938 2.929688 7.070312c1.859374 1.859376 4.441406 2.929688 7.070312 2.929688s5.210938-1.070312 7.070312-2.929688c1.859376-1.859374 2.929688-4.441406 2.929688-7.070312s-1.070312-5.210938-2.929688-7.070312c-1.859374-1.859376-4.441406-2.929688-7.070312-2.929688zm0 0" data-original="#000000" class="active-path" data-old_color="#000000" fill="#FBD601"/><path d="m257.058594 68c2.640625 0 5.210937-1.070312 7.070312-2.929688 1.871094-1.859374 2.929688-4.441406 2.929688-7.070312s-1.058594-5.210938-2.929688-7.070312c-1.859375-1.859376-4.4375-2.929688-7.070312-2.929688-2.628906 0-5.207032 1.070312-7.070313 2.929688-1.859375 1.859374-2.929687 4.441406-2.929687 7.070312s1.070312 5.210938 2.929687 7.070312c1.863281 1.859376 4.441407 2.929688 7.070313 2.929688zm0 0" data-original="#000000" class="active-path" data-old_color="#000000" fill="#FBD601"/></g> </svg>
