<?xml version="1.0"?>
<svg xmlns="http://www.w3.org/2000/svg" xmlns:xlink="http://www.w3.org/1999/xlink" version="1.1" id="Capa_1" x="0px" y="0px" viewBox="0 0 496 496" style="enable-background:new 0 0 496 496;" xml:space="preserve" width="512px" height="512px" class="hovered-paths"><g><path d="M440,472H56c-30.88,0-56-25.12-56-56V272c0-23.696,15-44.92,37.336-52.816l5.328,15.088C26.712,239.912,16,255.072,16,272  v144c0,22.056,17.944,40,40,40h384c22.056,0,40-17.944,40-40V272c0-16.928-10.712-32.088-26.664-37.728l5.328-15.088  C481,227.08,496,248.304,496,272v144C496,446.88,470.88,472,440,472z" data-original="#000000" class="hovered-path active-path" style="fill:#2B2A37" data-old_color="#000000"/><path d="M408,72H88V24h320V72z M104,56h288V40H104V56z" data-original="#000000" class="hovered-path active-path" style="fill:#2B2A37" data-old_color="#000000"/><rect x="88" y="112" width="16" height="112" data-original="#000000" class="hovered-path active-path" style="fill:#2B2A37" data-old_color="#000000"/><rect x="152" y="112" width="16" height="112" data-original="#000000" class="hovered-path active-path" style="fill:#2B2A37" data-old_color="#000000"/><rect x="328" y="112" width="16" height="112" data-original="#000000" class="hovered-path active-path" style="fill:#2B2A37" data-old_color="#000000"/><rect x="392" y="112" width="16" height="112" data-original="#000000" class="hovered-path active-path" style="fill:#2B2A37" data-old_color="#000000"/><path d="M128,440c-22.056,0-40-17.944-40-40v-48h16v48c0,13.232,10.768,24,24,24s24-10.768,24-24v-48h16v48  C168,422.056,150.056,440,128,440z" data-original="#000000" class="hovered-path active-path" style="fill:#2B2A37" data-old_color="#000000"/><path d="M368,440c-22.056,0-40-17.944-40-40v-48h16v48c0,13.232,10.768,24,24,24s24-10.768,24-24v-48h16v48  C408,422.056,390.056,440,368,440z" data-original="#000000" class="hovered-path active-path" style="fill:#2B2A37" data-old_color="#000000"/><rect x="312" y="168" width="112" height="16" data-original="#000000" class="hovered-path active-path" style="fill:#2B2A37" data-old_color="#000000"/><rect x="72" y="168" width="112" height="16" data-original="#000000" class="hovered-path active-path" style="fill:#2B2A37" data-old_color="#000000"/><rect x="136" y="64" width="16" height="48" data-original="#000000" class="hovered-path active-path" style="fill:#2B2A37" data-old_color="#000000"/><rect x="104" y="64" width="16" height="48" data-original="#000000" class="hovered-path active-path" style="fill:#2B2A37" data-old_color="#000000"/><rect x="376" y="64" width="16" height="48" data-original="#000000" class="hovered-path active-path" style="fill:#2B2A37" data-old_color="#000000"/><rect x="344" y="64" width="16" height="48" data-original="#000000" class="hovered-path active-path" style="fill:#2B2A37" data-old_color="#000000"/><rect x="448" y="336" width="40" height="16" data-original="#000000" class="hovered-path active-path" style="fill:#2B2A37" data-old_color="#000000"/><rect x="8" y="336" width="40" height="16" data-original="#000000" class="hovered-path active-path" style="fill:#2B2A37" data-old_color="#000000"/><path d="M248,344c-25.008,0-50.008-3.72-74.312-11.056l4.624-15.32c45.592,13.776,93.784,13.776,139.376,0l4.624,15.32  C298.008,340.28,273.008,344,248,344z" data-original="#000000" class="hovered-path active-path" style="fill:#2B2A37" data-old_color="#000000"/><path d="M421.144,284.96l-10.288-12.248C434.464,252.872,448,223.864,448,193.12V144c0-13.232-10.768-24-24-24H72  c-13.232,0-24,10.768-24,24v49.12c0,30.744,13.536,59.752,37.144,79.584l-10.288,12.248C47.624,262.072,32,228.6,32,193.12V144  c0-22.056,17.944-40,40-40h352c22.056,0,40,17.944,40,40v49.12C464,228.6,448.376,262.072,421.144,284.96z" data-original="#000000" class="hovered-path active-path" style="fill:#2B2A37" data-old_color="#000000"/><rect x="440" y="234.56" width="16" height="229.472" data-original="#000000" class="hovered-path active-path" style="fill:#2B2A37" data-old_color="#000000"/><rect x="40" y="234.56" width="16" height="229.472" data-original="#000000" class="hovered-path active-path" style="fill:#2B2A37" data-old_color="#000000"/><g>
	<path style="fill:#F58233" d="M312,216v144h112V216H312z M392,328h-48v-80h48V328z" data-original="#F0BC5E" class="" data-old_color="#F0BC5E"/>
	<path style="fill:#F58233" d="M72,216v144h112V216H72z M152,328h-48v-80h48V328z" data-original="#F0BC5E" class="" data-old_color="#F0BC5E"/>
</g></g> </svg>
