<?xml version="1.0"?>
<svg xmlns="http://www.w3.org/2000/svg" id="Layer_5" enable-background="new 0 0 64 64" height="512px" viewBox="0 0 64 64" width="512px" class="hovered-paths"><g><path d="m8 46.051v15.949h4v-18.48z" fill="#f0bc5e" data-original="#F0BC5E" class="hovered-path active-path" style="fill:#F58233" data-old_color="#f0bc5e"/><path d="m26 43.52v18.48h4v-15.949z" fill="#f0bc5e" data-original="#F0BC5E" class="hovered-path active-path" style="fill:#F58233" data-old_color="#f0bc5e"/><path d="m22.171 52.895-4.533-6.044 5.679-4.869 1.302 1.519-4.257 3.648 1.467 1.956 3.067-6.133 1.789.895z" data-original="#000000" class="" style="fill:#2B2A37" data-old_color="#000000"/><path d="m15.829 52.895-4.514-9.028 1.789-.895 3.067 6.133 1.467-1.956-4.257-3.648 1.302-1.519 5.679 4.869z" data-original="#000000" class="" style="fill:#2B2A37" data-old_color="#000000"/><path d="m18 53h2v2h-2z" data-original="#000000" class="" style="fill:#2B2A37" data-old_color="#000000"/><path d="m18 57h2v2h-2z" data-original="#000000" class="" style="fill:#2B2A37" data-old_color="#000000"/><path d="m55.159 59.541-6.159-2.464-6.159 2.464 1.254-12.543 1.99.199-.926 9.262 3.841-1.536 3.841 1.536-.926-9.262 1.99-.199z" data-original="#000000" class="" style="fill:#2B2A37" data-old_color="#000000"/><path d="m33 18h26v8h-26z" fill="#f0bc5e" data-original="#F0BC5E" class="hovered-path active-path" style="fill:#F58233" data-old_color="#f0bc5e"/><path d="m9 1v20c-1.103 0-2 .897-2 2h-1c-1.654 0-3 1.346-3 3v5.335c-1.368.957-2 3.709-2 4.665 0 1.654 1.346 3 3 3s3-1.346 3-3c0-.956-.632-3.708-2-4.665v-5.335c0-.551.449-1 1-1h1c0 1.103.897 2 2 2v3.677l.628.251c.047.019.346.136.812.302-.289.891-.44 1.817-.44 2.77 0 3.231 1.717 6.061 4.281 7.649-7.64 2.081-13.281 9.061-13.281 17.351v4h36v-4c0-8.29-5.641-15.27-13.281-17.351.321-.199.632-.412.925-.649h15.412v-2h-13.578c.96-1.431 1.522-3.151 1.522-5 0-.953-.152-1.88-.44-2.769.466-.166.764-.283.812-.302l.628-.252v-3.677c1.103 0 2-.897 2-2v-2c0-1.103-.897-2-2-2h-18v-18h50v36h-3.057v2h5.057v-40zm-5 36c-.551 0-1-.449-1-1 0-.826.571-2.436 1-2.916.429.479 1 2.09 1 2.916 0 .551-.449 1-1 1zm31 22v2h-32v-2c0-8.822 7.178-16 16-16s16 7.178 16 16zm-9-25c0 3.86-3.14 7-7 7s-7-3.14-7-7c0-.74.118-1.459.341-2.15 1.86.554 4.388 1.15 6.659 1.15s4.799-.596 6.659-1.149c.223.69.341 1.409.341 2.149zm1-4.694c-1.434.514-5.047 1.694-8 1.694s-6.566-1.18-8-1.694v-2.306h16zm2-4.306h-20l-.001-2h.001 20z" data-original="#000000" class="" style="fill:#2B2A37" data-old_color="#000000"/><path d="m59 5h-46v10h46zm-2 8h-42v-6h42z" data-original="#000000" class="" style="fill:#2B2A37" data-old_color="#000000"/><path d="m13 17h2v2h-2z" data-original="#000000" class="" style="fill:#2B2A37" data-old_color="#000000"/><path d="m17 17h42v2h-42z" data-original="#000000" class="" style="fill:#2B2A37" data-old_color="#000000"/><path d="m33 21h22v2h-22z" data-original="#000000" class="" style="fill:#2B2A37" data-old_color="#000000"/><path d="m57 21h2v2h-2z" data-original="#000000" class="" style="fill:#2B2A37" data-old_color="#000000"/><path d="m33 25h26v2h-26z" data-original="#000000" class="" style="fill:#2B2A37" data-old_color="#000000"/><path d="m33 29h2v2h-2z" data-original="#000000" class="" style="fill:#2B2A37" data-old_color="#000000"/><path d="m49 49c-5.514 0-10-4.486-10-10s4.486-10 10-10 10 4.486 10 10-4.486 10-10 10zm0-15c-2.757 0-5 2.243-5 5s2.243 5 5 5 5-2.243 5-5-2.243-5-5-5z" fill="#f0bc5e" data-original="#F0BC5E" class="hovered-path active-path" style="fill:#F58233" data-old_color="#f0bc5e"/><path d="m49 45c-3.309 0-6-2.691-6-6s2.691-6 6-6 6 2.691 6 6-2.691 6-6 6zm0-10c-2.206 0-4 1.794-4 4s1.794 4 4 4 4-1.794 4-4-1.794-4-4-4z" data-original="#000000" class="" style="fill:#2B2A37" data-old_color="#000000"/><path d="m37 29h2v2h-2z" data-original="#000000" class="" style="fill:#2B2A37" data-old_color="#000000"/></g> </svg>
