<?xml version="1.0"?>
<svg xmlns="http://www.w3.org/2000/svg" xmlns:xlink="http://www.w3.org/1999/xlink" version="1.1" id="Capa_1" x="0px" y="0px" viewBox="0 0 496 496" style="enable-background:new 0 0 496 496;" xml:space="preserve" width="512px" height="512px" class=""><g><g>
	<rect x="224" y="56" style="fill:#2B2A37" width="200" height="16" data-original="#333333" class="active-path" data-old_color="#333333"/>
	<rect x="224" y="216" style="fill:#2B2A37" width="200" height="16" data-original="#333333" class="active-path" data-old_color="#333333"/>
</g><path style="fill:#F58233" d="M456,104c-22.056,0-40-17.944-40-40s17.944-40,40-40s40,17.944,40,40S478.056,104,456,104z" data-original="#FFA64D" class="" data-old_color="#FFA64D"/><rect x="224" y="376" style="fill:#2B2A37" width="200" height="16" data-original="#333333" class="active-path" data-old_color="#333333"/><path style="fill:#F58233" d="M456,264c-22.056,0-40-17.944-40-40s17.944-40,40-40s40,17.944,40,40S478.056,264,456,264z" data-original="#FFA64D" class="" data-old_color="#FFA64D"/><rect x="368" y="248" style="fill:#2B2A37" width="16" height="16" data-original="#333333" class="active-path" data-old_color="#333333"/><path style="fill:#F58233" d="M456,424c-22.056,0-40-17.944-40-40s17.944-40,40-40s40,17.944,40,40S478.056,424,456,424z" data-original="#FFA64D" class="" data-old_color="#FFA64D"/><g>
	<rect x="224" y="248" style="fill:#2B2A37" width="128" height="16" data-original="#333333" class="active-path" data-old_color="#333333"/>
	<rect x="368" y="408" style="fill:#2B2A37" width="16" height="16" data-original="#333333" class="active-path" data-old_color="#333333"/>
	<rect x="224" y="408" style="fill:#2B2A37" width="128" height="16" data-original="#333333" class="active-path" data-old_color="#333333"/>
	<rect x="368" y="88" style="fill:#2B2A37" width="16" height="16" data-original="#333333" class="active-path" data-old_color="#333333"/>
	<rect x="224" y="88" style="fill:#2B2A37" width="128" height="16" data-original="#333333" class="active-path" data-old_color="#333333"/>
	<path style="fill:#2B2A37" d="M165.584,143.152l-21.456-5.36C158.664,126.04,168,108.096,168,88V64c0-35.288-28.712-64-64-64   S40,28.712,40,64v24c0,20.096,9.336,38.04,23.872,49.784l-21.456,5.36C17.44,149.392,0,171.736,0,197.48V272v8v24   c0,13.232,10.768,24,24,24h16v168h128V328h16c13.232,0,24-10.768,24-24v-24v-8v-74.52C208,171.736,190.56,149.392,165.584,143.152z    M56,88V64c0-26.472,21.528-48,48-48s48,21.528,48,48v24c0,26.472-21.528,48-48,48S56,114.472,56,88z M104,152   c8.048,0,15.72-1.56,22.824-4.28l-0.76,3.056C123.52,160.92,114.456,168,104,168s-19.52-7.08-22.056-17.224l-0.76-3.056   C88.28,150.44,95.952,152,104,152z M16,304v-24h24v32H24C19.592,312,16,308.416,16,304z M56,464h40v16H56V464z M112,480v-16h40v16   H112z M152,448h-40V328H96v120H56V328v-8v-24h64v-16H56v-8v-60.568H40V264H16v-66.52c0-18.384,12.464-34.344,30.304-38.808   l19.88-4.968l0.24,0.952C70.736,171.936,86.192,184,104,184s33.264-12.064,37.584-29.344l0.24-0.952l19.88,4.968   C179.536,163.136,192,179.088,192,197.48V264h-24v-52.568h-16V272v8h-16v16h16v24v8V448z M192,304c0,4.416-3.592,8-8,8h-16v-32h24   V304z" data-original="#333333" class="active-path" data-old_color="#333333"/>
</g></g> </svg>
