<?xml version="1.0"?>
<svg xmlns="http://www.w3.org/2000/svg" height="512px" viewBox="-66 0 512 512" width="512px"><g><path d="m50.125 112.136719c-3.925781 0-7.847656-1.246094-11.273438-3.734375-6.859374-4.984375-9.589843-13.417969-6.949218-21.476563l4.863281-14.859375-12.753906-9.222656c-6.867188-4.964844-9.617188-13.378906-7.007813-21.441406 2.609375-8.058594 9.769532-13.269532 18.242188-13.269532h15.761718l4.800782-14.855468c2.609375-8.066406 9.769531-13.277344 18.246094-13.277344 8.476562 0 15.636718 5.210938 18.246093 13.277344l4.800781 14.855468h15.761719c8.472657 0 15.632813 5.207032 18.242188 13.269532s-.140625 16.476562-7.003907 21.441406l-12.753906 9.222656 4.863282 14.859375c2.636718 8.0625-.09375 16.492188-6.953126 21.476563-6.863281 4.988281-15.722656 4.976562-22.574218-.023438l-12.628906-9.21875-12.628907 9.21875c-3.429687 2.503906-7.367187 3.757813-11.300781 3.757813zm23.929688-35.355469c2.070312 0 4.140624.640625 5.894531 1.921875l16.457031 12.011719-6.339844-19.363282c-1.351562-4.132812.121094-8.664062 3.644532-11.210937l16.601562-12.007813h-20.484375c-4.339844 0-8.183594-2.796874-9.515625-6.921874l-6.257812-19.351563-6.253907 19.351563c-1.335937 4.125-5.179687 6.921874-9.515625 6.921874h-20.484375l16.597657 12.007813c3.523437 2.546875 4.996093 7.078125 3.644531 11.210937l-6.335938 19.363282 16.453125-12.011719c1.753906-1.28125 3.824219-1.921875 5.894532-1.921875zm0 0" data-original="#000000" class="active-path" data-old_color="#000000" fill="#FBD601"/><path d="m166.015625 112.136719c-3.921875 0-7.847656-1.246094-11.273437-3.734375-6.859376-4.984375-9.589844-13.417969-6.949219-21.476563l4.863281-14.859375-12.757812-9.222656c-6.863282-4.964844-9.613282-13.378906-7.003907-21.441406 2.609375-8.058594 9.769531-13.269532 18.242188-13.269532h15.761719l4.800781-14.855468c2.609375-8.066406 9.769531-13.277344 18.246093-13.277344 8.476563 0 15.636719 5.210938 18.242188 13.277344l4.804688 14.855468h15.761718c8.472656 0 15.632813 5.207032 18.242188 13.269532s-.140625 16.476562-7.007813 21.441406l-12.753906 9.222656 4.863281 14.859375c2.640625 8.0625-.089844 16.492188-6.949218 21.476563-6.863282 4.988281-15.722657 4.976562-22.574219-.023438l-12.628907-9.21875-12.628906 9.21875c-3.429687 2.503906-7.367187 3.757813-11.300781 3.757813zm23.929687-35.355469c2.070313 0 4.140626.640625 5.894532 1.921875l16.457031 12.011719-6.339844-19.363282c-1.351562-4.132812.121094-8.664062 3.644531-11.210937l16.601563-12.007813h-20.484375c-4.339844 0-8.183594-2.796874-9.519531-6.921874l-6.253907-19.351563-6.253906 19.351563c-1.335937 4.125-5.179687 6.921874-9.515625 6.921874h-20.488281l16.601562 12.007813c3.523438 2.546875 4.996094 7.078125 3.644532 11.210937l-6.335938 19.363282 16.453125-12.011719c1.753907-1.28125 3.824219-1.921875 5.894531-1.921875zm0 0" data-original="#000000" class="active-path" data-old_color="#000000" fill="#FBD601"/><path d="m282.015625 112.136719c-3.921875 0-7.847656-1.246094-11.273437-3.734375-6.859376-4.984375-9.589844-13.417969-6.949219-21.476563l4.863281-14.859375-12.757812-9.222656c-6.863282-4.964844-9.613282-13.378906-7.003907-21.441406 2.609375-8.058594 9.769531-13.269532 18.242188-13.269532h15.761719l4.800781-14.855468c2.609375-8.066406 9.769531-13.277344 18.246093-13.277344 8.476563 0 15.636719 5.210938 18.242188 13.277344l4.804688 14.855468h15.761718c8.472656 0 15.632813 5.207032 18.242188 13.269532s-.140625 16.476562-7.007813 21.441406l-12.753906 9.222656 4.863281 14.859375c2.640625 8.0625-.089844 16.492188-6.949218 21.476563-6.863282 4.988281-15.722657 4.976562-22.574219-.023438l-12.628907-9.21875-12.628906 9.21875c-3.429687 2.503906-7.367187 3.757813-11.300781 3.757813zm23.929687-35.355469c2.070313 0 4.140626.640625 5.894532 1.921875l16.457031 12.011719-6.339844-19.363282c-1.351562-4.132812.121094-8.664062 3.644531-11.210937l16.601563-12.007813h-20.484375c-4.339844 0-8.183594-2.796874-9.519531-6.921874l-6.253907-19.351563-6.253906 19.351563c-1.335937 4.125-5.179687 6.921874-9.515625 6.921874h-20.488281l16.601562 12.007813c3.523438 2.546875 4.996094 7.078125 3.644532 11.210937l-6.335938 19.363282 16.453125-12.011719c1.753907-1.28125 3.824219-1.921875 5.894531-1.921875zm0 0" data-original="#000000" class="active-path" data-old_color="#000000" fill="#FBD601"/><path d="m190 512c-.460938 0-.917969-.03125-1.375-.09375-52.296875-7.265625-100.191406-33.191406-134.859375-73.011719-34.671875-39.820312-53.765625-90.824219-53.765625-143.621093v-153.273438c0-5.523438 4.476562-10 10-10h139.945312c5.523438 0 10 4.476562 10 10s-4.476562 10-10 10h-129.945312v143.273438c0 98.171874 72.984375 182.457031 170 196.625 97.015625-14.167969 170-98.453126 170-196.625v-143.273438h-130.054688c-5.523437 0-10-4.476562-10-10s4.476563-10 10-10h140.054688c5.523438 0 10 4.476562 10 10v153.273438c0 52.796874-19.09375 103.800781-53.765625 143.621093-34.667969 39.816407-82.5625 65.746094-134.859375 73.011719-.457031.0625-.914062.09375-1.375.09375zm0 0" data-original="#000000" class="active-path" data-old_color="#000000" fill="#FBD601"/><path d="m190 471.523438c-.570312 0-1.140625-.050782-1.703125-.148438-41.160156-7.113281-78.8125-28.785156-106.015625-61.019531-27.265625-32.308594-42.28125-73.179688-42.28125-115.082031v-113.273438c0-5.523438 4.476562-10 10-10h280c5.523438 0 10 4.476562 10 10v113.273438c0 41.902343-15.015625 82.773437-42.28125 115.082031-27.203125 32.234375-64.855469 53.90625-106.015625 61.019531-.5625.097656-1.132813.148438-1.703125.148438zm-130-279.523438v103.273438c0 75.605468 55.765625 142.398437 130 156.089843 74.234375-13.691406 130-80.484375 130-156.089843v-103.273438zm0 0" data-original="#000000" class="active-path" data-old_color="#000000" fill="#FBD601"/><path d="m168.128906 385.660156c-2.558594 0-5.117187-.976562-7.070312-2.929687l-70.988282-70.988281c-1.875-1.875-2.925781-4.417969-2.925781-7.070313s1.050781-5.195313 2.925781-7.070313l36.933594-36.929687c3.90625-3.90625 10.234375-3.90625 14.140625 0l26.984375 26.984375 70.726563-70.726562c3.90625-3.90625 10.238281-3.90625 14.144531 0l36.929688 36.929687c1.875 1.875 2.929687 4.417969 2.929687 7.070313 0 2.652343-1.054687 5.199218-2.929687 7.074218l-86.429688 86.425782-7.070312-7.070313 7.070312 7.070313-28.300781 28.300781c-1.953125 1.953125-4.511719 2.929687-7.070313 2.929687zm-56.84375-80.988281 56.84375 56.84375 100.585938-100.585937-22.789063-22.789063-70.726562 70.726563c-3.90625 3.90625-10.234375 3.90625-14.140625 0l-26.984375-26.984376zm0 0" data-original="#000000" class="active-path" data-old_color="#000000" fill="#FBD601"/><path d="m190 152c-2.628906 0-5.210938-1.070312-7.070312-2.929688-1.859376-1.859374-2.929688-4.441406-2.929688-7.070312s1.070312-5.210938 2.929688-7.070312c1.859374-1.859376 4.441406-2.929688 7.070312-2.929688s5.210938 1.070312 7.070312 2.929688c1.859376 1.859374 2.929688 4.441406 2.929688 7.070312s-1.070312 5.210938-2.929688 7.070312c-1.859374 1.859376-4.441406 2.929688-7.070312 2.929688zm0 0" data-original="#000000" class="active-path" data-old_color="#000000" fill="#FBD601"/></g> </svg>
