<?xml version="1.0"?>
<svg xmlns="http://www.w3.org/2000/svg" id="Layer_35" enable-background="new 0 0 64 64" height="512px" viewBox="0 0 64 64" width="512px" class="hovered-paths"><g><path d="m55 51h-30c-1.103 0-2-.897-2-2v-18c0-1.103.897-2 2-2h10v2h-10v18h30v-18h-4v-2h4c1.103 0 2 .897 2 2v18c0 1.103-.897 2-2 2z" data-original="#000000" class="active-path" style="fill:#2B2A37" data-old_color="#000000"/><path d="m58 21.784v-7.568l-2.794-.687c-.123-.332-.262-.664-.416-.995l1.492-2.465-5.352-5.352-2.464 1.493c-.331-.154-.663-.293-.995-.416l-.687-2.794h-7.568l-.687 2.794c-.332.123-.664.262-.995.416l-2.465-1.492-5.352 5.352 1.506 2.487c-.403.976-1.022 2.705-1.166 3.108l-.064.182.006.153h5.253v-.001c.888-3.45 4.021-5.999 7.748-5.999 4.418 0 8 3.582 8 8s-3.582 8-8 8c-3.357 0-6.232-2.068-7.418-5h-5.381l.009.229.075.172c.027.063.551 1.261.927 2.062l-1.494 2.468 5.352 5.352 2.465-1.492c.33.154.663.293.995.416l.686 2.793h7.568l.687-2.794c.332-.123.664-.262.995-.416l2.465 1.492 5.352-5.352-1.492-2.465c.154-.331.293-.663.416-.995z" fill="#f0bc5e" data-original="#F0BC5E" class="" style="fill:#F58233" data-old_color="#f0bc5e"/><path d="m61 53v-23c0-2.757-2.243-5-5-5h-.281l.563.931-1.069 1.069h.787c1.654 0 3 1.346 3 3v23h-38v-23c0-1.654 1.346-3 3-3h6.787l-1.069-1.069.563-.931h-6.281v-1.5c0-.827.673-1.5 1.5-1.5h9.464c1.515 3.05 4.585 5 8.036 5 4.963 0 9-4.037 9-9s-4.037-9-9-9c-3.845 0-7.229 2.431-8.488 6h-14.238c1.667-1.467 2.726-3.61 2.726-6 0-4.411-3.589-8-8-8s-8 3.589-8 8c0 2.498 1.152 4.73 2.951 6.199-5.088.963-8.951 5.436-8.951 10.801v13h18v14h-2v5c0 2.757 2.243 5 5 5h36c2.757 0 5-2.243 5-5v-5zm-18-42c3.859 0 7 3.141 7 7s-3.141 7-7 7c-2.331 0-4.436-1.148-5.725-3h.225c.694 0 1.337-.209 1.881-.558.933.978 2.235 1.558 3.619 1.558 2.757 0 5-2.243 5-5s-2.243-5-5-5c-1.71 0-3.26.881-4.17 2.266-.411-.17-.859-.266-1.33-.266h-.816c1.14-2.404 3.573-4 6.316-4zm-2.611 5.529c.525-.931 1.515-1.529 2.611-1.529 1.654 0 3 1.346 3 3s-1.346 3-3 3c-.9 0-1.73-.423-2.295-1.104.188-.428.295-.899.295-1.396 0-.731-.227-1.409-.611-1.971zm-31.389-7.529c0-3.309 2.691-6 6-6s6 2.691 6 6-2.691 6-6 6-6-2.691-6-6zm-1 28v-15h-2v15h-3v-11c0-4.963 4.037-9 9-9h25.5c.827 0 1.5.673 1.5 1.5s-.673 1.5-1.5 1.5h-12c-1.93 0-3.5 1.57-3.5 3.5v1.924c-1.763.774-3 2.531-3 4.576v7zm53 21c0 1.654-1.346 3-3 3h-36c-1.654 0-3-1.346-3-3v-3h42z" data-original="#000000" class="active-path" style="fill:#2B2A37" data-old_color="#000000"/><path d="m21 57h10v2h-10z" fill="#f0bc5e" data-original="#F0BC5E" class="" style="fill:#F58233" data-old_color="#f0bc5e"/><path d="m21 57h2v2h-2z" data-original="#000000" class="active-path" style="fill:#2B2A37" data-old_color="#000000"/><path d="m25 57h2v2h-2z" data-original="#000000" class="active-path" style="fill:#2B2A37" data-old_color="#000000"/><path d="m29 57h2v2h-2z" data-original="#000000" class="active-path" style="fill:#2B2A37" data-old_color="#000000"/><path d="m33.675 40h12.649v1.999h-12.649z" transform="matrix(.317 -.949 .949 .317 -11.553 65.966)" data-original="#000000" class="active-path" style="fill:#2B2A37" data-old_color="#000000"/><path d="m45.707 47.707-1.414-1.414 5.293-5.293-5.293-5.293 1.414-1.414 6.707 6.707z" data-original="#000000" class="active-path" style="fill:#2B2A37" data-old_color="#000000"/><path d="m34.293 47.707-6.707-6.707 6.707-6.707 1.414 1.414-5.293 5.293 5.293 5.293z" data-original="#000000" class="active-path" style="fill:#2B2A37" data-old_color="#000000"/></g> </svg>
