<?xml version="1.0"?>
<svg xmlns="http://www.w3.org/2000/svg" height="512px" viewBox="0 0 512 512.00058" width="512px"><g><path d="m216 266c5.519531 0 10-4.480469 10-10s-4.480469-10-10-10-10 4.480469-10 10 4.480469 10 10 10zm0 0" data-original="#000000" class="active-path" data-old_color="#000000" fill="#FBD601"/><path d="m50 286c5.519531 0 10-4.480469 10-10s-4.480469-10-10-10-10 4.480469-10 10 4.480469 10 10 10zm0 0" data-original="#000000" class="active-path" data-old_color="#000000" fill="#FBD601"/><path d="m432 226.558594v-61.5625c0-.019532 0-.042969 0-.066406v-74.929688c0-16.542969-13.457031-30-30-30h-96v-30c0-16.542969-13.457031-30-30-30h-120c-16.542969 0-30 13.457031-30 30v30h-96c-16.542969 0-30 13.457031-30 30v74.929688.066406 191.003906c0 27.570312 22.429688 50 50 50h312v96c0 3.84375 2.203125 7.347656 5.667969 9.011719 3.464843 1.667969 7.578125 1.199219 10.578125-1.203125l43.753906-35 43.753906 35c2.996094 2.398437 7.105469 2.875 10.578125 1.203125 3.464844-1.664063 5.667969-5.167969 5.667969-9.011719v-118.921875c19.125-17.085937 30-41.261719 30-67.078125 0-46.246094-35.0625-84.449219-80-89.441406zm-286-196.558594c0-5.515625 4.484375-10 10-10h120c5.515625 0 10 4.484375 10 10v30h-140zm-116 50h372c5.515625 0 10 4.484375 10 10v68.554688l-155.480469 68.167968c-9.292969-12.824218-24.328125-20.722656-40.519531-20.722656s-31.226562 7.898438-40.519531 20.722656l-155.480469-68.167968v-68.554688c0-5.515625 4.484375-10 10-10zm158.679688 163.585938c4.867187-10.683594 15.589843-17.585938 27.320312-17.585938s22.453125 6.902344 27.320312 17.585938c1.777344 3.90625 2.679688 8.082031 2.679688 12.414062 0 16.542969-13.457031 30-30 30s-30-13.457031-30-30c0-4.332031.902344-8.511719 2.679688-12.414062zm-138.679688 142.414062c-16.542969 0-30-13.457031-30-30v-175.605469l147.234375 64.550781c-.8125 3.601563-1.234375 7.292969-1.234375 11.054688 0 27.570312 22.429688 50 50 50s50-22.429688 50-50c0-3.761719-.417969-7.453125-1.234375-11.054688l147.234375-64.550781v46.164063c-44.9375 4.992187-80 43.195312-80 89.441406 0 25.816406 10.875 49.992188 30 67.078125v2.921875zm378.246094 68.191406c-3.652344-2.921875-8.839844-2.921875-12.492188 0l-33.753906 27v-84.585937c12.359375 6.121093 26.082031 9.394531 40 9.394531 13.921875 0 27.640625-3.273438 40-9.394531v84.585937zm-6.246094-68.191406c-38.601562 0-70-31.234375-70-70 0-38.597656 31.402344-70 70-70s70 31.402344 70 70c0 38.757812-31.394531 70-70 70zm0 0" data-original="#000000" class="active-path" data-old_color="#000000" fill="#FBD601"/><path d="m422 266c-27.570312 0-50 22.429688-50 50s22.429688 50 50 50 50-22.429688 50-50-22.429688-50-50-50zm0 80c-16.542969 0-30-13.457031-30-30s13.457031-30 30-30 30 13.457031 30 30-13.457031 30-30 30zm0 0" data-original="#000000" class="active-path" data-old_color="#000000" fill="#FBD601"/><path d="m90 346h-30v-30c0-5.523438-4.476562-10-10-10s-10 4.476562-10 10v40c0 5.523438 4.476562 10 10 10h40c5.523438 0 10-4.476562 10-10s-4.476562-10-10-10zm0 0" data-original="#000000" class="active-path" data-old_color="#000000" fill="#FBD601"/></g> </svg>
